# xmcd
#
# Track frame offsets:
#	150
#	25887
#	49592
#	73500
#	91260
#	110080
#	130907
#	151237
#	165860
#	185407
#	198140
#
# Disc length: 2913 seconds
#
# Revision: 0
# Processed by: cddbd v1.5.1PL0 Copyright (c) Steve Scherf et al.
# Submitted via: EasyCDDAExtractor 4.6.9.1
#
DISCID=840b5f0b
DTITLE=TRT Baðlama Takýmý - Tuna Boyu, Batý Trakya ve Rumeli Türküleri
DYEAR=2003
DGENRE=ethnic
TTITLE0=Bir fýrtýna tuttu bizi
TTITLE1=Yalý kenarý
TTITLE2=Yazan katip kara yazmýþ
TTITLE3=Daðlar daðlar viran daðlar
TTITLE4=Gemi kalkar sularý akar
TTITLE5=Aliþimin kaþlarý kare
TTITLE6=Ver ateþi yalanda dünya ko yansýn
TTITLE7=Trakya karþýlamasý
TTITLE8=Bulut gelir seher ile
TTITLE9=Mayadaðdan kalkan kazlar
TTITLE10=Ýnce giyerim ince
EXTD=
EXTT0=
EXTT1=
EXTT2=
EXTT3=
EXTT4=
EXTT5=
EXTT6=
EXTT7=
EXTT8=
EXTT9=
EXTT10=
PLAYORDER=
